<?xml version="1.0" encoding="UTF-8" standalone="no"?><!DOCTYPE svg PUBLIC "-//W3C//DTD SVG 1.1//EN" "http://www.w3.org/Graphics/SVG/1.1/DTD/svg11.dtd"><svg width="100%" height="100%" viewBox="0 0 569 360" version="1.1" xmlns="http://www.w3.org/2000/svg" xmlns:xlink="http://www.w3.org/1999/xlink" xml:space="preserve" xmlns:serif="http://www.serif.com/" style="fill-rule:evenodd;clip-rule:evenodd;stroke-linecap:round;stroke-linejoin:round;stroke-miterlimit:1.5;"><g id="图层1"><path d="M3,0c-3.616,3.865 -4.386,8.89 0,13.5c20.224,2.52 36.946,9.623 47.25,18.75c70.758,142.168 126.664,293.603 149.25,327.75c17.477,0.904 32.77,-60.872 92.25,-157.5c36.508,79.385 80.778,180.719 81,157.5c-1.15,25.371 123.431,-293.101 155.25,-331.5c10.546,-12.134 29.39,-12.662 34.5,-15c6.473,-2.962 6.597,-12.632 3,-13.5c-38.986,4.354 -76.069,3.133 -112.5,0c-1.729,3.85 -1.858,10.528 0.75,13.5c19.368,1.433 29.211,6.641 33,14.25c12.22,24.95 -65.203,178.685 -99.75,258l-65.25,-132.75c23.829,-49.472 55.788,-112.562 80.25,-130.5c9.929,-6.773 21.026,-8.332 31.5,-8.25c4.98,-2.5 3.165,-7.938 2.25,-14.25c-37.311,5.116 -75.672,4.508 -114.75,0c-4.586,4.235 -5.388,9.982 -1.5,14.25c17.265,1.323 28.132,5.538 33,16.5c5.395,19.576 -20.21,59.363 -44.25,99.75c-34.402,-63.869 -48.772,-98.078 -43.5,-103.5c4.64,-9.797 16.39,-13.061 33.75,-13.5c3.497,-1.449 3.716,-7.123 1.5,-13.5c-43.74,5.062 -87.492,4.346 -131.25,0c-2.54,4.471 -2.29,9.221 0.75,12.75c12.221,1.129 22.5,3.581 30,9.75c22.565,28.88 51.432,94.83 80.25,159l-58.5,110.25c-77.616,-164.948 -121.225,-255.72 -108,-252c-0.326,-0.092 -3.022,0.37 3.684,-6.2c5.861,-5.743 15.32,-16.145 30.816,-20.05c5.648,-1.519 4.207,-6.611 1.5,-13.5c-52.502,4.196 -99.205,4.078 -146.25,0Z" style="fill:#20a7a4;"/><path d="M297,0c21.227,-0.408 -1.86,0.475 24,0c-4.586,4.235 -5.388,9.982 -1.5,14.25c17.265,1.323 28.132,5.538 33,16.5c4.448,19.983 -20.831,58.88 -44.25,99c-21.722,-38.258 -48.201,-91.955 -43.5,-102.75c4.64,-9.797 16.39,-13.061 33.75,-13.5c3.497,-1.449 0.716,-7.123 -1.5,-13.5Z" style="fill:none;stroke:#fc9da0;stroke-width:3px;"/></g></svg>